<svg aria-hidden="true" style="position: absolute; width: 0; height: 0; overflow: hidden;" version="1.1" xmlns="http://www.w3.org/2000/svg" xmlns:xlink="http://www.w3.org/1999/xlink">
<defs>
<symbol id="icon-calendar-minus" viewBox="0 0 32 32">
<path d="M21.6 19.92v1.12c0 0.163-0.051 0.298-0.157 0.403s-0.24 0.157-0.403 0.157h-10.080c-0.163 0-0.298-0.051-0.403-0.157s-0.157-0.24-0.157-0.403v-1.12c0-0.163 0.051-0.298 0.157-0.403s0.24-0.157 0.403-0.157h10.080c0.163 0 0.298 0.051 0.403 0.157s0.157 0.24 0.157 0.403zM3.68 29.44h24.64v-17.92h-24.64v17.92zM10.4 8.16v-5.040c0-0.163-0.051-0.298-0.157-0.403s-0.24-0.157-0.403-0.157h-1.12c-0.163 0-0.298 0.051-0.403 0.157s-0.157 0.24-0.157 0.403v5.040c0 0.163 0.051 0.298 0.157 0.403s0.24 0.157 0.403 0.157h1.12c0.163 0 0.298-0.051 0.403-0.157s0.157-0.24 0.157-0.403zM23.84 8.16v-5.040c0-0.163-0.051-0.298-0.157-0.403s-0.24-0.157-0.403-0.157h-1.12c-0.163 0-0.298 0.051-0.403 0.157s-0.157 0.24-0.157 0.403v5.040c0 0.163 0.051 0.298 0.157 0.403s0.24 0.157 0.403 0.157h1.12c0.163 0 0.298-0.051 0.403-0.157s0.157-0.24 0.157-0.403zM30.56 7.040v22.4c0 0.608-0.221 1.133-0.666 1.574-0.442 0.445-0.966 0.666-1.574 0.666h-24.64c-0.608 0-1.133-0.221-1.574-0.666-0.445-0.442-0.666-0.966-0.666-1.574v-22.4c0-0.608 0.221-1.133 0.666-1.574 0.442-0.445 0.966-0.666 1.574-0.666h2.24v-1.68c0-0.771 0.275-1.43 0.822-1.978s1.206-0.822 1.978-0.822h1.12c0.771 0 1.43 0.275 1.978 0.822s0.822 1.206 0.822 1.978v1.68h6.72v-1.68c0-0.771 0.275-1.43 0.822-1.978s1.206-0.822 1.978-0.822h1.12c0.771 0 1.43 0.275 1.978 0.822s0.822 1.206 0.822 1.978v1.68h2.24c0.608 0 1.133 0.221 1.574 0.666 0.445 0.442 0.666 0.966 0.666 1.574v0z"></path>
</symbol>
<symbol id="icon-calendar-plus" viewBox="0 0 29 32">
<path d="M0.487 3.826h5.901l-0.008-0.102v-2.648c0-0.591 0.615-1.076 1.37-1.076 0.753 0 1.37 0.487 1.37 1.076v2.648l-0.008 0.102h10.049l-0.008-0.102v-2.648c0-0.591 0.615-1.076 1.367-1.076s1.37 0.487 1.37 1.076v2.648l-0.008 0.102h6.279c0.268 0 0.487 0.219 0.487 0.487v5.068c0 0.268-0.219 0.487-0.487 0.487h-27.674c-0.268-0.003-0.487-0.221-0.487-0.49v-5.068c0-0.268 0.219-0.484 0.487-0.484v0zM18.646 19.424l-3.052 0.021 0.021-3.044c0.005-0.693-0.555-1.255-1.253-1.255-0.698-0.003-1.268 0.56-1.273 1.253l-0.021 3.065-3.063 0.021c-0.698 0.005-1.266 0.578-1.268 1.276 0 0.698 0.565 1.26 1.263 1.255l3.052-0.026-0.021 3.044c-0.008 0.693 0.555 1.255 1.253 1.258 0.698 0 1.268-0.56 1.273-1.253l0.021-3.065 3.062-0.021c0.698-0.005 1.266-0.576 1.268-1.273 0-0.698-0.565-1.26-1.263-1.255zM0.122 10.987v0 0c-0.068 0-0.122 0.055-0.12 0.122v20.768c0 0.065 0.055 0.12 0.12 0.12h28.406c0.065 0 0.12-0.055 0.12-0.12v-20.771c0-0.065-0.052-0.12-0.12-0.12h-28.406zM2.302 13.172h24.438c0.135 0 0.245 0.117 0.245 0.245v16.367c0 0.128-0.117 0.245-0.245 0.245h-24.555c-0.128 0-0.245-0.109-0.245-0.245v-16.25c0-0.268 0.219-0.484 0.484-0.484l-0.122 0.122zM20.401 7.779c0.753 0 1.37-0.487 1.37-1.076v-2.768l-0.008-0.107h-2.724l-0.008 0.107v2.646c0 0.591 0.615 1.076 1.367 1.076l0.003 0.122zM7.628 7.779c0.753 0 1.37-0.487 1.37-1.076v-2.768l-0.008-0.107h-2.724l-0.008 0.107v2.646c0 0.591 0.615 1.076 1.367 1.076v0.122h0.003z"></path>
</symbol>
<symbol id="icon-trash" viewBox="0 0 32 32">
<path d="M21.949 10.528h-1.44c-0.32 0-0.586 0.266-0.586 0.586v15.35c0 0.323 0.266 0.586 0.586 0.586h1.44c0.32 0 0.586-0.266 0.586-0.586v-15.35c0-0.323-0.266-0.586-0.586-0.586z"></path>
<path d="M31.094 5.546h-7.763l-1.331-3.443c-0.422-1.094-1.424-1.782-2.598-1.782h-6.8c-1.178 0-2.176 0.688-2.598 1.782l-1.331 3.443h-7.766c-0.32 0-0.586 0.266-0.586 0.586v1.443c0 0.32 0.266 0.586 0.586 0.586h3.334v20.048c0 1.91 1.562 3.472 3.472 3.472h16.576c1.91 0 3.472-1.562 3.472-3.472v-20.048h3.334c0.32 0 0.586-0.266 0.586-0.586v-1.443c0.003-0.32-0.262-0.586-0.586-0.586zM11.901 3.779c0.211-0.547 0.714-0.893 1.302-0.893h5.597c0.589 0 1.091 0.342 1.299 0.893l0.685 1.766h-9.565l0.682-1.766zM25.152 27.859c0 0.666-0.544 1.21-1.21 1.21h-15.882c-0.666 0-1.206-0.544-1.206-1.21v-19.699h18.298v19.699z"></path>
<path d="M11.494 10.528h-1.44c-0.323 0-0.586 0.266-0.586 0.586v15.35c0 0.323 0.262 0.586 0.586 0.586h1.44c0.32 0 0.586-0.266 0.586-0.586v-15.35c0.003-0.323-0.262-0.586-0.586-0.586z"></path>
<path d="M16.72 10.528h-1.44c-0.32 0-0.586 0.266-0.586 0.586v15.35c0 0.323 0.266 0.586 0.586 0.586h1.44c0.323 0 0.589-0.266 0.589-0.586v-15.35c0-0.323-0.266-0.586-0.589-0.586z"></path>
</symbol>
<symbol id="icon-video-camera-svgrepo-com" viewBox="0 0 32 32">
<path d="M32 9.339v13.31c0 1.029-1.114 1.671-2.005 1.16l-5.544-3.198v0.911c0 2.739-2.222 4.961-4.961 4.961h-14.529c-2.739 0-4.961-2.222-4.961-4.961v-11.042c0-2.739 2.222-4.961 4.961-4.961h14.535c2.739 0 4.961 2.222 4.961 4.961v0.911l5.544-3.198c0.885-0.524 1.999 0.124 1.999 1.147z"></path>
</symbol>
</defs>
</svg>
