<svg width="0" height="0" class="hidden">
  <symbol xmlns="http://www.w3.org/2000/svg" viewBox="0 0 110.01 122.88" id="calendar-plus">
    <path d="M1.87 14.69h22.66l-.03-.39V4.13C24.5 1.86 26.86 0 29.76 0c2.89 0 5.26 1.87 5.26 4.13V14.3l-.03.39h38.59l-.03-.39V4.13C73.55 1.86 75.91 0 78.8 0s5.26 1.87 5.26 4.13V14.3l-.03.39h24.11c1.03 0 1.87.84 1.87 1.87v19.46c0 1.03-.84 1.87-1.87 1.87H1.87A1.889 1.889 0 010 36.01V16.55c0-1.03.84-1.86 1.87-1.86zm69.73 59.9a4.81 4.81 0 014.85 4.82 4.92 4.92 0 01-4.87 4.89l-11.76.08-.08 11.77c-.02 2.66-2.21 4.81-4.89 4.81-2.68-.01-4.84-2.17-4.81-4.83l.08-11.69-11.72.1a4.81 4.81 0 01-4.85-4.82c.01-2.68 2.19-4.88 4.87-4.9l11.76-.08.08-11.77c.02-2.66 2.21-4.82 4.89-4.81 2.68 0 4.83 2.16 4.81 4.82l-.08 11.69 11.72-.08zM.47 42.19h109.08c.26 0 .46.21.46.46v79.76c0 .25-.21.46-.46.46H.47c-.25 0-.46-.21-.46-.46V42.66c-.01-.26.2-.47.46-.47zm8.37 8.39h93.84c.52 0 .94.45.94.94v62.85c0 .49-.45.94-.94.94H8.39c-.49 0-.94-.42-.94-.94v-62.4c0-1.03.84-1.86 1.86-1.86l-.47.47zm69.5-20.71c2.89 0 5.26-1.87 5.26-4.13V15.11l-.03-.41H73.11l-.03.41v10.16c0 2.27 2.36 4.13 5.25 4.13l.01.47zm-49.05 0c2.89 0 5.26-1.87 5.26-4.13V15.11l-.03-.41H24.06l-.03.41v10.16c0 2.27 2.36 4.13 5.25 4.13v.47h.01z" fill-rule="evenodd" clip-rule="evenodd"></path>
  </symbol>
  <symbol xmlns="http://www.w3.org/2000/svg" viewBox="0 0 488.3 488.3" id="video-camera-svgrepo-com">
    <path d="M488.3 142.5v203.1c0 15.7-17 25.5-30.6 17.7l-84.6-48.8v13.9c0 41.8-33.9 75.7-75.7 75.7H75.7C33.9 404.1 0 370.2 0 328.4V159.9c0-41.8 33.9-75.7 75.7-75.7h221.8c41.8 0 75.7 33.9 75.7 75.7v13.9l84.6-48.8c13.5-8 30.5 1.9 30.5 17.5z"></path>
  </symbol>
</svg>