<svg aria-hidden="true" style="position:absolute;width:0;height:0" xmlns="http://www.w3.org/2000/svg" overflow="hidden"><defs><symbol id="icon-calendar-minus" viewBox="0 0 32 32"><path d="M21.6 19.92v1.12c0 .163-.051.298-.157.403s-.24.157-.403.157H10.96c-.163 0-.298-.051-.403-.157s-.157-.24-.157-.403v-1.12c0-.163.051-.298.157-.403s.24-.157.403-.157h10.08c.163 0 .298.051.403.157s.157.24.157.403zM3.68 29.44h24.64V11.52H3.68v17.92zM10.4 8.16V3.12c0-.163-.051-.298-.157-.403s-.24-.157-.403-.157H8.72c-.163 0-.298.051-.403.157s-.157.24-.157.403v5.04c0 .163.051.298.157.403s.24.157.403.157h1.12c.163 0 .298-.051.403-.157s.157-.24.157-.403zm13.44 0V3.12c0-.163-.051-.298-.157-.403s-.24-.157-.403-.157h-1.12c-.163 0-.298.051-.403.157s-.157.24-.157.403v5.04c0 .163.051.298.157.403s.24.157.403.157h1.12c.163 0 .298-.051.403-.157s.157-.24.157-.403zm6.72-1.12v22.4a2.14 2.14 0 01-.666 1.574 2.14 2.14 0 01-1.574.666H3.68a2.14 2.14 0 01-1.574-.666 2.14 2.14 0 01-.666-1.574V7.04c0-.608.221-1.133.666-1.574A2.14 2.14 0 013.68 4.8h2.24V3.12c0-.771.275-1.43.822-1.978S7.948.32 8.72.32h1.12c.771 0 1.43.275 1.978.822s.822 1.206.822 1.978V4.8h6.72V3.12c0-.771.275-1.43.822-1.978S21.388.32 22.16.32h1.12c.771 0 1.43.275 1.978.822s.822 1.206.822 1.978V4.8h2.24a2.14 2.14 0 011.574.666c.445.442.666.966.666 1.574z"/></symbol><symbol id="icon-calendar-plus" viewBox="0 0 29 32"><path d="M.487 3.826h5.901l-.008-.102V1.076C6.38.485 6.995 0 7.75 0c.753 0 1.37.487 1.37 1.076v2.648l-.008.102h10.049l-.008-.102V1.076C19.153.485 19.768 0 20.52 0s1.37.487 1.37 1.076v2.648l-.008.102h6.279c.268 0 .487.219.487.487v5.068a.488.488 0 01-.487.487H.487A.492.492 0 010 9.378V4.31c0-.268.219-.484.487-.484zm18.159 15.598l-3.052.021.021-3.044a1.247 1.247 0 00-1.253-1.255 1.267 1.267 0 00-1.273 1.253l-.021 3.065-3.063.021a1.282 1.282 0 00-1.268 1.276c0 .698.565 1.26 1.263 1.255l3.052-.026-.021 3.044a1.25 1.25 0 001.253 1.258c.698 0 1.268-.56 1.273-1.253l.021-3.065 3.062-.021a1.28 1.28 0 001.268-1.273c0-.698-.565-1.26-1.263-1.255zM.122 10.987a.119.119 0 00-.12.122v20.768c0 .065.055.12.12.12h28.406c.065 0 .12-.055.12-.12V11.106a.12.12 0 00-.12-.12H.122zm2.18 2.185H26.74a.25.25 0 01.245.245v16.367a.255.255 0 01-.245.245H2.185a.25.25 0 01-.245-.245v-16.25c0-.268.219-.484.484-.484l-.122.122zm18.099-5.393c.753 0 1.37-.487 1.37-1.076V3.935l-.008-.107h-2.724l-.008.107v2.646c0 .591.615 1.076 1.367 1.076l.003.122zm-12.773 0c.753 0 1.37-.487 1.37-1.076V3.935l-.008-.107H6.266l-.008.107v2.646c0 .591.615 1.076 1.367 1.076v.122h.003z"/></symbol><symbol id="icon-trash" viewBox="0 0 32 32"><path d="M21.949 10.528h-1.44a.59.59 0 00-.586.586v15.35c0 .323.266.586.586.586h1.44a.59.59 0 00.586-.586v-15.35a.589.589 0 00-.586-.586z"/><path d="M31.094 5.546h-7.763L22 2.103A2.741 2.741 0 0019.402.321h-6.8a2.737 2.737 0 00-2.598 1.782L8.673 5.546H.907a.59.59 0 00-.586.586v1.443c0 .32.266.586.586.586h3.334v20.048a3.482 3.482 0 003.472 3.472h16.576a3.482 3.482 0 003.472-3.472V8.161h3.334a.59.59 0 00.586-.586V6.132a.586.586 0 00-.586-.586zM11.901 3.779a1.375 1.375 0 011.302-.893H18.8c.589 0 1.091.342 1.299.893l.685 1.766h-9.565l.682-1.766zm13.251 24.08c0 .666-.544 1.21-1.21 1.21H8.06a1.21 1.21 0 01-1.206-1.21V8.16h18.298v19.699z"/><path d="M11.494 10.528h-1.44a.589.589 0 00-.586.586v15.35c0 .323.262.586.586.586h1.44a.59.59 0 00.586-.586v-15.35a.584.584 0 00-.586-.586zm5.226 0h-1.44a.59.59 0 00-.586.586v15.35c0 .323.266.586.586.586h1.44a.591.591 0 00.589-.586v-15.35a.59.59 0 00-.589-.586z"/></symbol><symbol id="icon-video-camera-svgrepo-com" viewBox="0 0 32 32"><path d="M32 9.339v13.31a1.339 1.339 0 01-2.005 1.16l-5.544-3.198v.911a4.962 4.962 0 01-4.961 4.961H4.961A4.962 4.962 0 010 21.522V10.48a4.962 4.962 0 014.961-4.961h14.535a4.962 4.962 0 014.961 4.961v.911l5.544-3.198C30.886 7.669 32 8.317 32 9.34z"/></symbol></defs></svg>